<svg xmlns="http://www.w3.org/2000/svg" viewBox="0 0 70.38 37.01"><title>Asset 1</title><g id="Layer_2" data-name="Layer 2"><g id="Layer_2-2" data-name="Layer 2"><polygon points="64.08 27.15 69.91 3.28 14.66 3.28 8.76 27.15 8.09 30.21 63.19 30.21 64.08 27.15" fill="none" stroke="#000" stroke-miterlimit="10" stroke-width="0.75"/><ellipse cx="65.28" cy="22.46" rx="2.87" ry="1.6" transform="translate(27.47 80.22) rotate(-75.77)" fill="#fff" stroke="#000" stroke-miterlimit="10" stroke-width="0.75"/><path d="M9.36,6.17V4.53H11.6s2.84-.37,2.09,2.65l-4.93,20H7.27L11.82,8S12.64,6.4,11,6Z" fill="none" stroke="#000" stroke-miterlimit="10" stroke-width="0.75"/><polygon points="11.37 27.68 10.54 30.21 5.18 30.21 5.7 27.15 11.82 27.15 11.37 27.68" fill="#fff" stroke="#000" stroke-miterlimit="10" stroke-width="0.75"/><polygon points="14.07 5.67 16.72 5.67 14.38 15.83 11.56 15.83 14.07 5.67" fill="none" stroke="#000" stroke-miterlimit="10" stroke-width="0.75"/><ellipse cx="9.49" cy="24.32" rx="2.84" ry="0.75" transform="translate(-16.39 27.69) rotate(-76.1)" fill="#fff" stroke="#000" stroke-miterlimit="10" stroke-width="0.75"/><polygon points="18.32 5.67 28.32 5.67 26.08 15.83 15.98 15.83 18.32 5.67" fill="none" stroke="#000" stroke-miterlimit="10" stroke-width="0.75"/><polygon points="30.61 5.67 28.32 15.83 38.18 15.83 40.32 5.67 30.61 5.67" fill="none" stroke="#000" stroke-miterlimit="10" stroke-width="0.75"/><polygon points="42.66 5.67 40.58 15.83 50.12 15.83 52.46 5.67 42.66 5.67" fill="none" stroke="#000" stroke-miterlimit="10" stroke-width="0.75"/><polygon points="54.5 5.67 52.46 15.83 62.12 15.83 64.36 5.67 54.5 5.67" fill="none" stroke="#000" stroke-miterlimit="10" stroke-width="0.75"/><polygon points="69.32 5.67 66.7 5.67 64.36 16.03 66.84 16.03 69.32 5.67" fill="none" stroke="#000" stroke-miterlimit="10" stroke-width="0.75"/><rect x="16.47" y="16.95" width="44.9" height="3.41" fill="none" stroke="#000" stroke-miterlimit="10" stroke-width="0.75"/><path d="M11.56,30.21s.24-5,6.51-7.06c0,0,6.77-2.54,8.86,2a14.32,14.32,0,0,1,.79,5.26Z" fill="none" stroke="#000" stroke-miterlimit="10" stroke-width="0.75"/><path d="M25.86,30c0,3.25-3.73,6.64-7,6.64S13.82,34,13.82,30.74s3.56-6.42,6.81-6.42S25.86,26.74,25.86,30Z" fill="#fff" stroke="#000" stroke-miterlimit="10" stroke-width="0.75"/><path d="M24.08,30.32c0,2.26-2.59,4.62-4.85,4.62s-3.51-1.84-3.51-4.1,2.47-4.46,4.73-4.46S24.08,28.06,24.08,30.32Z" fill="#fff" stroke="#000" stroke-miterlimit="10" stroke-width="0.75"/><path d="M42.24,30.18s.24-5,6.51-7.07c0,0,6.77-2.54,8.86,2a14.21,14.21,0,0,1,.8,5.26Z" fill="none" stroke="#000" stroke-miterlimit="10" stroke-width="0.75"/><path d="M56.62,29.73c0,3.25-3.73,6.64-7,6.64s-5.06-2.64-5.06-5.9,3.57-6.42,6.82-6.42S56.62,26.48,56.62,29.73Z" fill="#fff" stroke="#000" stroke-miterlimit="10" stroke-width="0.75"/><path d="M54.85,30.06c0,2.26-2.59,4.62-4.85,4.62s-3.52-1.84-3.52-4.1,2.48-4.46,4.74-4.46S54.85,27.8,54.85,30.06Z" fill="#fff" stroke="#000" stroke-miterlimit="10" stroke-width="0.75"/><polygon points="60.42 30.21 60.92 27.38 66.4 27.38 65.7 30.21 60.42 30.21" fill="#fff" stroke="#000" stroke-miterlimit="10" stroke-width="0.75"/><line x1="41.41" y1="0.25" x2="8.81" y2="0.25" fill="none" stroke="#635f5f" stroke-miterlimit="10" stroke-width="0.5"/><line x1="33.05" y1="1.69" x2="2.84" y2="1.69" fill="none" stroke="#635f5f" stroke-miterlimit="10" stroke-width="0.5"/><line x1="34.32" y1="22.2" y2="22.2" fill="none" stroke="#635f5f" stroke-miterlimit="10" stroke-width="0.5"/><line x1="37.78" y1="33.05" x2="5.18" y2="33.05" fill="none" stroke="#635f5f" stroke-miterlimit="10" stroke-width="0.5"/></g></g></svg>